<svg width="20" height="26" viewBox="0 0 20 26" fill="none" xmlns="http://www.w3.org/2000/svg">
<path d="M6.19876 8.81804L6.19651 8.81987L6.19437 8.82195L6.19876 8.81804ZM16.1529 8.63151C16.0833 8.56445 16.0061 8.50578 15.9229 8.4567C15.8051 8.38736 15.6743 8.34292 15.5386 8.32614C15.4029 8.30935 15.2653 8.32057 15.1341 8.35911C15.0029 8.39764 14.8811 8.46267 14.776 8.55017C14.671 8.63767 14.585 8.74579 14.5235 8.86784C14.179 9.54653 13.7039 10.1505 13.1255 10.6452C13.2139 10.1468 13.2585 9.64159 13.2588 9.13541C13.2606 7.59551 12.8544 6.08262 12.0814 4.75077C11.3084 3.41892 10.1964 2.31569 8.85837 1.55341C8.71098 1.46985 8.54477 1.42512 8.37535 1.42339C8.20594 1.42167 8.03886 1.46301 7.88979 1.54355C7.74073 1.62408 7.61457 1.74117 7.52316 1.88382C7.43174 2.02647 7.37806 2.19 7.36716 2.35908C7.3112 3.30725 7.06332 4.23419 6.63855 5.08374C6.21378 5.93329 5.62095 6.68776 4.89599 7.30144L4.66552 7.48894C3.90743 7.99903 3.23641 8.62784 2.67822 9.35124C1.81053 10.4443 1.20946 11.7246 0.922675 13.0904C0.635886 14.4563 0.671268 15.8701 1.02601 17.2199C1.38076 18.5697 2.04511 19.8183 2.96639 20.8666C3.88766 21.9149 5.04051 22.7342 6.33353 23.2594C6.48535 23.3215 6.6501 23.3452 6.81325 23.3285C6.9764 23.3118 7.13294 23.2553 7.26906 23.1638C7.40518 23.0723 7.51669 22.9487 7.59376 22.8039C7.67083 22.6592 7.71109 22.4977 7.71099 22.3337C7.71027 22.2276 7.69348 22.1222 7.66119 22.0212C7.43746 21.1802 7.37303 20.3048 7.47124 19.4401C8.41748 21.2248 9.93638 22.6395 11.7837 23.4567C12.0092 23.5576 12.2641 23.5712 12.4991 23.4948C13.9586 23.0237 15.2735 22.1872 16.3187 21.0648C17.364 19.9425 18.1048 18.5715 18.471 17.0821C18.8371 15.5927 18.8163 14.0345 18.4106 12.5554C18.0048 11.0764 17.2277 9.72561 16.1529 8.63151ZM12.2481 21.4626C11.3764 21.0208 10.6074 20.4005 9.99123 19.642C9.37502 18.8836 8.92533 18.0039 8.67142 17.0602C8.59387 16.7425 8.53388 16.4207 8.49173 16.0964C8.46317 15.8898 8.37077 15.6973 8.22745 15.5459C8.08414 15.3944 7.89708 15.2915 7.69242 15.2516C7.62937 15.2392 7.56525 15.233 7.50099 15.2331C7.32523 15.233 7.15256 15.2793 7.0004 15.3673C6.84823 15.4552 6.72195 15.5817 6.63429 15.7341C5.80456 17.1652 5.38729 18.7981 5.42872 20.4518C4.69896 19.8845 4.08907 19.1779 3.63439 18.373C3.17972 17.5682 2.88931 16.6811 2.77999 15.7632C2.67067 14.8453 2.74461 13.9149 2.99754 13.0258C3.25047 12.1367 3.67734 11.3066 4.25343 10.5837C4.69084 10.0155 5.21852 9.52298 5.81543 9.12569C5.84127 9.10901 5.86606 9.09074 5.88965 9.071C5.88965 9.071 6.18637 8.82549 6.19651 8.81987C7.6212 7.61483 8.63449 5.99541 9.09522 4.18721C10.1848 5.19444 10.9113 6.53324 11.162 7.99572C11.4126 9.45819 11.1734 10.9625 10.4814 12.2751C10.39 12.4502 10.3525 12.6485 10.3737 12.845C10.3948 13.0414 10.4737 13.2272 10.6003 13.3789C10.7269 13.5306 10.8956 13.6413 11.0851 13.6973C11.2746 13.7532 11.4764 13.7517 11.665 13.6931C13.1968 13.2129 14.5447 12.275 15.5273 11.0056C16.1179 11.8779 16.504 12.8722 16.6568 13.9145C16.8097 14.9567 16.7254 16.02 16.4102 17.0251C16.095 18.0303 15.557 18.9513 14.8364 19.7196C14.1157 20.488 13.231 21.0837 12.2481 21.4626Z" fill="url(#paint0_linear_247_1339)" fill-opacity="0.8"/>
<defs>
<linearGradient id="paint0_linear_247_1339" x1="9.73098" y1="1.42334" x2="9.73098" y2="23.5436" gradientUnits="userSpaceOnUse">
<stop stop-color="#FABF2A"/>
<stop offset="1" stop-color="#D71E1E"/>
</linearGradient>
</defs>
</svg>
