<svg width="21" height="28" viewBox="0 0 21 28" fill="none" xmlns="http://www.w3.org/2000/svg">
<path d="M6.1987 9.91862L6.19645 9.92045L6.19431 9.92253L6.1987 9.91862ZM16.1528 9.73209C16.0832 9.66504 16.006 9.60637 15.9228 9.55728C15.805 9.48794 15.6742 9.44351 15.5385 9.42672C15.4029 9.40994 15.2652 9.42116 15.134 9.45969C15.0029 9.49823 14.881 9.56326 14.776 9.65076C14.6709 9.73826 14.585 9.84638 14.5234 9.96842C14.1789 10.6471 13.7038 11.2511 13.1254 11.7458C13.2139 11.2474 13.2585 10.7422 13.2587 10.236C13.2606 8.69609 12.8543 7.1832 12.0814 5.85136C11.3084 4.51951 10.1963 3.41628 8.85831 2.65399C8.71092 2.57044 8.54471 2.5257 8.37529 2.52398C8.20588 2.52225 8.03879 2.5636 7.88973 2.64413C7.74067 2.72467 7.61451 2.84175 7.52309 2.9844C7.43168 3.12705 7.378 3.29059 7.3671 3.45966C7.31114 4.40784 7.06326 5.33478 6.63849 6.18433C6.21372 7.03388 5.62089 7.78835 4.89593 8.40202L4.66546 8.58952C3.90737 9.09961 3.23635 9.72842 2.67816 10.4518C1.81047 11.5449 1.2094 12.8252 0.922614 14.191C0.635825 15.5568 0.671207 16.9707 1.02595 18.3205C1.3807 19.6703 2.04505 20.9188 2.96632 21.9672C3.8876 23.0155 5.04045 23.8348 6.33347 24.36C6.48529 24.4221 6.65004 24.4458 6.81319 24.4291C6.97634 24.4124 7.13288 24.3558 7.269 24.2644C7.40512 24.1729 7.51663 24.0493 7.5937 23.9045C7.67077 23.7598 7.71103 23.5983 7.71093 23.4343C7.71021 23.3282 7.69342 23.2228 7.66113 23.1218C7.4374 22.2808 7.37297 21.4054 7.47118 20.5407C8.41742 22.3254 9.93631 23.7401 11.7837 24.5573C12.0092 24.6582 12.2641 24.6717 12.499 24.5954C13.9586 24.1243 15.2734 23.2878 16.3187 22.1654C17.3639 21.043 18.1048 19.672 18.4709 18.1827C18.837 16.6933 18.8162 15.1351 18.4105 13.656C18.0048 12.177 17.2276 10.8262 16.1528 9.73209ZM12.248 22.5632C11.3763 22.1214 10.6074 21.5011 9.99117 20.7426C9.37496 19.9842 8.92527 19.1045 8.67136 18.1608C8.59381 17.8431 8.53382 17.5213 8.49167 17.1969C8.46311 16.9904 8.37071 16.7979 8.22739 16.6465C8.08408 16.495 7.89701 16.3921 7.69236 16.3522C7.62931 16.3398 7.56519 16.3336 7.50093 16.3337C7.32517 16.3336 7.1525 16.3799 7.00034 16.4678C6.84817 16.5558 6.72189 16.6823 6.63423 16.8347C5.8045 18.2658 5.38723 19.8987 5.42866 21.5524C4.6989 20.985 4.08901 20.2785 3.63433 19.4736C3.17966 18.6688 2.88925 17.7817 2.77993 16.8638C2.67061 15.9459 2.74455 15.0155 2.99748 14.1264C3.25041 13.2373 3.67728 12.4072 4.25337 11.6843C4.69078 11.1161 5.21846 10.6236 5.81537 10.2263C5.84121 10.2096 5.866 10.1913 5.88959 10.1716C5.88959 10.1716 6.18631 9.92607 6.19645 9.92045C7.62114 8.71541 8.63443 7.096 9.09516 5.28779C10.1847 6.29502 10.9112 7.63382 11.1619 9.0963C11.4126 10.5588 11.1734 12.0631 10.4814 13.3757C10.39 13.5508 10.3525 13.7491 10.3736 13.9456C10.3948 14.142 10.4736 14.3278 10.6002 14.4795C10.7268 14.6311 10.8955 14.7419 11.085 14.7979C11.2745 14.8538 11.4763 14.8523 11.665 14.7937C13.1968 14.3135 14.5447 13.3756 15.5273 12.1062C16.1178 12.9785 16.5039 13.9728 16.6568 15.015C16.8096 16.0573 16.7253 17.1206 16.4101 18.1257C16.0949 19.1309 15.5569 20.0519 14.8363 20.8202C14.1156 21.5885 13.2309 22.1843 12.248 22.5632Z" fill="black" fill-opacity="0.4"/>
<path d="M2.00002 1.76453L20 25.9844" stroke="white" stroke-width="2" stroke-linecap="round"/>
<path d="M1.00002 2.65112L19 26.871" stroke="#999999" stroke-width="2" stroke-linecap="round"/>
</svg>
