<svg width="114" height="114" viewBox="0 0 114 114" fill="none" xmlns="http://www.w3.org/2000/svg">
<path d="M57.0109 0.100586C58.1437 0.100586 59.2301 0.550588 60.0311 1.3516C60.8321 2.15261 61.2821 3.23901 61.2821 4.37181V12.9143C61.2821 14.0471 60.8321 15.1335 60.0311 15.9345C59.2301 16.7355 58.1437 17.1855 57.0109 17.1855C55.8781 17.1855 54.7917 16.7355 53.9907 15.9345C53.1897 15.1335 52.7397 14.0471 52.7397 12.9143V4.37181C52.7397 3.23901 53.1897 2.15261 53.9907 1.3516C54.7917 0.550588 55.8781 0.100586 57.0109 0.100586ZM57.0109 85.5251C64.5629 85.5251 71.8056 82.5251 77.1456 77.1851C82.4857 71.845 85.4857 64.6023 85.4857 57.0503C85.4857 49.4983 82.4857 42.2556 77.1456 36.9155C71.8056 31.5755 64.5629 28.5754 57.0109 28.5754C49.4589 28.5754 42.2162 31.5755 36.8761 36.9155C31.536 42.2556 28.536 49.4983 28.536 57.0503C28.536 64.6023 31.536 71.845 36.8761 77.1851C42.2162 82.5251 49.4589 85.5251 57.0109 85.5251ZM57.0109 76.9827C54.3933 76.9827 51.8014 76.4671 49.3831 75.4654C46.9648 74.4637 44.7674 72.9955 42.9165 71.1446C41.0657 69.2937 39.5974 67.0964 38.5957 64.6781C37.594 62.2598 37.0785 59.6679 37.0785 57.0503C37.0785 54.4327 37.594 51.8408 38.5957 49.4225C39.5974 47.0042 41.0657 44.8069 42.9165 42.956C44.7674 41.1051 46.9648 39.6369 49.3831 38.6352C51.8014 37.6335 54.3933 37.1179 57.0109 37.1179C62.2973 37.1179 67.3672 39.2179 71.1052 42.956C74.8433 46.694 76.9433 51.7639 76.9433 57.0503C76.9433 62.3367 74.8433 67.4066 71.1052 71.1446C67.3672 74.8827 62.2973 76.9827 57.0109 76.9827ZM109.689 61.3215C110.822 61.3215 111.909 60.8715 112.71 60.0705C113.511 59.2695 113.961 58.1831 113.961 57.0503C113.961 55.9175 113.511 54.8311 112.71 54.0301C111.909 53.2291 110.822 52.7791 109.689 52.7791H101.147C100.014 52.7791 98.9277 53.2291 98.1267 54.0301C97.3257 54.8311 96.8757 55.9175 96.8757 57.0503C96.8757 58.1831 97.3257 59.2695 98.1267 60.0705C98.9277 60.8715 100.014 61.3215 101.147 61.3215H109.689ZM57.0109 96.9151C58.1437 96.9151 59.2301 97.3651 60.0311 98.1661C60.8321 98.9671 61.2821 100.054 61.2821 101.186V109.729C61.2821 110.862 60.8321 111.948 60.0311 112.749C59.2301 113.55 58.1437 114 57.0109 114C55.8781 114 54.7917 113.55 53.9907 112.749C53.1897 111.948 52.7397 110.862 52.7397 109.729V101.186C52.7397 100.054 53.1897 98.9671 53.9907 98.1661C54.7917 97.3651 55.8781 96.9151 57.0109 96.9151ZM12.8749 61.3215C14.0077 61.3215 15.0941 60.8715 15.8951 60.0705C16.6961 59.2695 17.1461 58.1831 17.1461 57.0503C17.1461 55.9175 16.6961 54.8311 15.8951 54.0301C15.0941 53.2291 14.0077 52.7791 12.8749 52.7791H4.3324C3.1996 52.7791 2.1132 53.2291 1.31219 54.0301C0.511175 54.8311 0.0611725 55.9175 0.0611725 57.0503C0.0611725 58.1831 0.511175 59.2695 1.31219 60.0705C2.1132 60.8715 3.1996 61.3215 4.3324 61.3215H12.8749ZM12.704 12.7434C13.5049 11.9436 14.5905 11.4943 15.7223 11.4943C16.8542 11.4943 17.9398 11.9436 18.7407 12.7434L27.2831 21.2859C28.0376 22.0956 28.4483 23.1665 28.4288 24.273C28.4093 25.3796 27.961 26.4353 27.1785 27.2179C26.3959 28.0004 25.3401 28.4487 24.2336 28.4682C23.1271 28.4878 22.0561 28.077 21.2465 27.3225L12.704 18.7801C11.9041 17.9792 11.4549 16.8936 11.4549 15.7618C11.4549 14.6299 11.9041 13.5443 12.704 12.7434ZM18.7407 101.357C18.3496 101.777 17.8781 102.113 17.3542 102.347C16.8302 102.58 16.2646 102.706 15.6911 102.716C15.1176 102.726 14.548 102.621 14.0161 102.406C13.4843 102.191 13.0012 101.871 12.5956 101.466C12.19 101.06 11.8703 100.577 11.6554 100.045C11.4406 99.5132 11.3351 98.9435 11.3452 98.37C11.3554 97.7965 11.4809 97.2309 11.7143 96.707C11.9478 96.1831 12.2844 95.7115 12.704 95.3205L21.2465 86.778C21.6375 86.3584 22.109 86.0218 22.633 85.7884C23.1569 85.5549 23.7225 85.4294 24.296 85.4193C24.8695 85.4091 25.4392 85.5146 25.971 85.7295C26.5028 85.9443 26.986 86.264 27.3916 86.6696C27.7971 87.0752 28.1169 87.5583 28.3317 88.0902C28.5465 88.622 28.652 89.1917 28.6419 89.7652C28.6318 90.3387 28.5063 90.9043 28.2728 91.4282C28.0394 91.9521 27.7028 92.4237 27.2831 92.8147L18.7407 101.357ZM101.318 12.7434C100.517 11.9436 99.4313 11.4943 98.2994 11.4943C97.1675 11.4943 96.0819 11.9436 95.2811 12.7434L86.7386 21.2859C85.9842 22.0956 85.5734 23.1665 85.5929 24.273C85.6125 25.3796 86.0607 26.4353 86.8433 27.2179C87.6259 28.0004 88.6816 28.4487 89.7882 28.4682C90.8947 28.4878 91.9656 28.077 92.7753 27.3225L101.318 18.7801C102.118 17.9792 102.567 16.8936 102.567 15.7618C102.567 14.6299 102.118 13.5443 101.318 12.7434ZM95.2811 101.357C95.6721 101.777 96.1437 102.113 96.6676 102.347C97.1915 102.58 97.7571 102.706 98.3306 102.716C98.9041 102.726 99.4738 102.621 100.006 102.406C100.537 102.191 101.021 101.871 101.426 101.466C101.832 101.06 102.152 100.577 102.366 100.045C102.581 99.5132 102.687 98.9435 102.677 98.37C102.666 97.7965 102.541 97.2309 102.307 96.707C102.074 96.1831 101.737 95.7115 101.318 95.3205L92.7753 86.778C92.3843 86.3584 91.9127 86.0218 91.3888 85.7884C90.8649 85.5549 90.2993 85.4294 89.7258 85.4193C89.1523 85.4091 88.5826 85.5146 88.0508 85.7295C87.5189 85.9443 87.0358 86.264 86.6302 86.6696C86.2246 87.0752 85.9049 87.5583 85.69 88.0902C85.4752 88.622 85.3697 89.1917 85.3799 89.7652C85.39 90.3387 85.5155 90.9043 85.7489 91.4282C85.9824 91.9521 86.319 92.4237 86.7386 92.8147L95.2811 101.357Z" fill="black"/>
</svg>
