<svg width="108" height="103" viewBox="0 0 108 103" fill="none" xmlns="http://www.w3.org/2000/svg">
<path d="M59.4672 21.949C76.5246 21.949 86.1972 33.2012 87.6074 46.7929H88.038C90.6446 46.7894 93.2264 47.2978 95.6359 48.2891C98.0454 49.2804 100.235 50.7352 102.081 52.5704C103.926 54.4056 105.391 56.5852 106.391 58.9847C107.391 61.3843 107.908 63.9568 107.911 66.5553C107.907 69.1534 107.39 71.7253 106.39 74.1242C105.389 76.5232 103.924 78.7021 102.079 80.5368C100.234 82.3714 98.0438 83.8257 95.6347 84.8167C93.2255 85.8076 90.6442 86.3159 88.038 86.3123L84.7008 86.307L76.3578 100.387C75.8459 101.269 75.0173 101.925 74.0391 102.222C73.061 102.519 72.0063 102.435 71.088 101.987C70.1697 101.539 69.4561 100.76 69.0915 99.8074C68.7269 98.8551 68.7384 97.8004 69.1236 96.8562L69.3658 96.3626L75.3835 86.307H63.8863L55.5379 100.387C55.026 101.269 54.1974 101.925 53.2192 102.222C52.2411 102.519 51.1864 102.435 50.2681 101.987C49.3498 101.539 48.6362 100.76 48.2716 99.8074C47.907 98.8551 47.9185 97.8004 48.3037 96.8562L48.5459 96.3626L54.5636 86.307H43.0664L34.718 100.387C34.2061 101.269 33.3775 101.925 32.3993 102.222C31.4212 102.519 30.3665 102.435 29.4482 101.987C28.5299 101.539 27.8163 100.76 27.4517 99.8074C27.0871 98.8551 27.0986 97.8004 27.4838 96.8562L27.726 96.3626L33.7383 86.307L30.9017 86.3123C28.2955 86.3159 25.7142 85.8076 23.3051 84.8167C20.8959 83.8257 18.7062 82.3714 16.8608 80.5368C15.0155 78.7021 13.5507 76.5232 12.5501 74.1242C11.5495 71.7253 11.0327 69.1534 11.0292 66.5553C11.032 63.9568 11.5483 61.3843 12.5486 58.9847C13.5488 56.5852 15.0135 54.4056 16.8589 52.5704C18.7043 50.7352 20.8943 49.2804 23.3038 48.2891C25.7133 47.2978 28.2951 46.7894 30.9017 46.7929H31.3323C32.7479 33.11 42.4151 21.949 59.4672 21.949ZM59.4672 29.9871C48.3198 29.9871 38.5988 38.7495 38.5988 50.8548C38.5988 52.7705 36.8818 54.2783 34.9171 54.2783H31.2031C24.4157 54.2783 18.9093 59.6495 18.9093 66.2763C18.9093 72.9031 24.4157 78.2797 31.2031 78.2797H87.7366C94.5187 78.2797 100.025 72.9031 100.025 66.2763C100.025 59.6495 94.5241 54.2783 87.7366 54.2783H84.0172C82.0526 54.2783 80.3355 52.7758 80.3355 50.8548C80.3355 38.5939 70.6145 29.9817 59.4672 29.9817V29.9871ZM12.9938 44.2495C13.3662 45.1481 13.3996 46.1507 13.0879 47.072C12.7762 47.9933 12.1405 48.7709 11.2983 49.2612L10.8085 49.508L5.82418 51.5631C4.87948 51.9522 3.82189 51.9696 2.86486 51.6117C1.90783 51.2538 1.12261 50.5473 0.667679 49.6348C0.212746 48.7223 0.12197 47.6718 0.41367 46.6952C0.705371 45.7186 1.35783 44.8887 2.23937 44.3729L2.73457 44.1261L7.71886 42.071C8.2087 41.8687 8.73372 41.7645 9.26393 41.7646C9.79414 41.7646 10.3192 41.8687 10.809 42.071C11.2988 42.2733 11.7439 42.5698 12.1188 42.9436C12.4936 43.3174 12.791 43.7611 12.9938 44.2495ZM47.9107 18.311L46.9849 18.6222C44.1855 19.6004 41.5395 20.9698 39.1263 22.6895C36.5347 21.8503 33.7456 21.8348 31.1448 22.6451C28.5439 23.4554 26.26 25.0514 24.6089 27.2123C22.9579 29.3733 22.0213 31.9924 21.9288 34.7072C21.8364 37.4221 22.5925 40.0984 24.0927 42.3661C21.4694 43.1007 18.9852 44.2609 16.7401 45.8002C14.2731 41.5732 13.3516 36.6245 14.1324 31.7964C14.9132 26.9683 17.3481 22.5591 21.0227 19.3191C24.6973 16.0791 29.3846 14.2086 34.2869 14.0257C39.1892 13.8429 44.0036 15.3591 47.9107 18.3164V18.311ZM5.31283 18.4773L5.88339 18.6651L10.8677 20.7256C11.8049 21.1173 12.5595 21.8469 12.9808 22.7689C13.402 23.6908 13.459 24.7373 13.1403 25.6992C12.8216 26.6612 12.1506 27.468 11.2614 27.9584C10.3722 28.4489 9.33011 28.587 8.34324 28.3451L7.78345 28.1681L2.79916 26.1076C1.8644 25.7148 1.11225 24.9855 0.692374 24.0649C0.272496 23.1444 0.215668 22.1 0.533197 21.1395C0.850726 20.1791 1.51934 19.373 2.40599 18.8817C3.29264 18.3904 4.33234 18.2499 5.31822 18.4881L5.31283 18.4773ZM25.8475 2.45494L26.0951 2.94323L28.1566 7.91736C28.5413 8.8583 28.5547 9.90947 28.1942 10.8599C27.8337 11.8103 27.1258 12.5895 26.2128 13.0412C25.2998 13.4929 24.2492 13.5836 23.2719 13.2951C22.2946 13.0065 21.4629 12.3601 20.9439 11.4857L20.6963 10.9974L18.6348 6.02322C18.2501 5.08229 18.2366 4.03112 18.5972 3.08072C18.9577 2.13032 19.6655 1.35106 20.5785 0.899373C21.4916 0.447684 22.5422 0.357004 23.5195 0.645537C24.4968 0.934071 25.3284 1.58046 25.8475 2.45494ZM49.2833 0.748598C50.1758 1.11824 50.9057 1.79483 51.3403 2.65541C51.7749 3.516 51.8854 4.50346 51.6516 5.43835L51.4632 6.00176L49.4017 10.9759C49.0088 11.9102 48.2769 12.6625 47.3521 13.0824C46.4273 13.5024 45.3776 13.5592 44.4126 13.2414C43.4476 12.9237 42.6383 12.2549 42.1463 11.3684C41.6543 10.4819 41.5158 9.44311 41.7584 8.45932L41.9414 7.8959L44.0083 2.92176C44.419 1.93644 45.2053 1.15401 46.1945 0.746499C47.1837 0.338983 48.2947 0.339738 49.2833 0.748598Z" fill="black"/>
</svg>
