<svg width="27" height="28" viewBox="0 0 27 28" fill="none" xmlns="http://www.w3.org/2000/svg">
<path d="M20.8883 17.2459C20.8883 21.7508 18.0524 24.5866 13.5475 24.5866C9.04259 24.5866 6.2067 21.7508 6.2067 17.2459C6.2067 12.4117 11.4691 5.88549 13.0831 3.99779C13.1405 3.93072 13.2118 3.87688 13.292 3.83997C13.3722 3.80305 13.4594 3.78394 13.5477 3.78394C13.636 3.78394 13.7233 3.80305 13.8035 3.83997C13.8837 3.87688 13.955 3.93072 14.0124 3.99779C15.6258 5.88549 20.8883 12.4117 20.8883 17.2459Z" stroke="black" stroke-width="1.63128" stroke-miterlimit="10"/>
<path d="M18.0335 17.6536C18.0335 18.6271 17.6468 19.5607 16.9585 20.249C16.2702 20.9373 15.3366 21.324 14.3631 21.324" stroke="black" stroke-width="1.63128" stroke-linecap="round" stroke-linejoin="round"/>
</svg>
