<svg width="17" height="18" viewBox="0 0 17 18" fill="none" xmlns="http://www.w3.org/2000/svg">
<path d="M8.5 0.304504C8.65813 0.30454 8.8109 0.36188 8.92999 0.465903C9.04909 0.569927 9.12645 0.713586 9.14774 0.87027L9.15385 0.959189L9.15298 3.87519L11.0465 2.21277C11.111 2.1561 11.1861 2.11269 11.2674 2.08502C11.3486 2.05736 11.4346 2.04597 11.5203 2.05152C11.606 2.05706 11.6897 2.07943 11.7668 2.11734C11.8438 2.15525 11.9126 2.20797 11.9693 2.27248C12.026 2.33699 12.0694 2.41203 12.0971 2.49331C12.1247 2.5746 12.1361 2.66054 12.1306 2.74622C12.125 2.83191 12.1027 2.91566 12.0647 2.9927C12.0268 3.06974 11.9741 3.13856 11.9096 3.19523L9.15385 5.61608L9.1521 8.15026H11.6882L14.1117 5.39553C14.2152 5.27783 14.3575 5.20121 14.5127 5.17961C14.6679 5.15801 14.8257 5.19287 14.9574 5.27784L15.0341 5.33625C15.1518 5.4397 15.2284 5.58198 15.25 5.73718C15.2716 5.89239 15.2368 6.05018 15.1518 6.18184L15.0934 6.25856L13.43 8.15026H16.3462C16.5043 8.15029 16.657 8.20763 16.7761 8.31166C16.8952 8.41568 16.9726 8.55934 16.9939 8.71602L17 8.80407C17 8.96206 16.9428 9.11471 16.8389 9.23378C16.7351 9.35285 16.5916 9.43029 16.4351 9.45178L16.3462 9.45788H13.4274L15.0916 11.3522C15.1953 11.4699 15.2532 11.6209 15.2548 11.7777C15.2564 11.9346 15.2016 12.0867 15.1004 12.2065L15.0324 12.2745C14.9147 12.3782 14.7636 12.4361 14.6068 12.4377C14.45 12.4393 14.2978 12.3845 14.178 12.2832L14.1091 12.2152L11.6864 9.45788H9.15123L9.1521 11.9921L11.9105 14.4155C12.0282 14.519 12.1048 14.6613 12.1264 14.8165C12.148 14.9717 12.1131 15.1295 12.0282 15.2611L11.9697 15.3387C11.8663 15.4564 11.724 15.533 11.5688 15.5546C11.4136 15.5762 11.2558 15.5414 11.1241 15.4564L11.0474 15.398L9.1521 13.7329L9.15123 16.6516C9.1512 16.8097 9.09385 16.9624 8.98982 17.0815C8.8858 17.2006 8.74213 17.278 8.58544 17.2993L8.49739 17.3045C8.33938 17.3045 8.18673 17.2473 8.06765 17.1434C7.94857 17.0396 7.87113 16.8961 7.84964 16.7396L7.84354 16.6507L7.84267 13.7364L5.95349 15.398C5.8232 15.5124 5.65278 15.5704 5.47972 15.5592C5.30666 15.548 5.14514 15.4686 5.03069 15.3383C4.91624 15.208 4.85824 15.0376 4.86943 14.8645C4.88063 14.6915 4.96012 14.53 5.09041 14.4155L7.84354 11.9947V9.45788H5.50277L2.89 12.4332C2.77555 12.5634 2.61403 12.6429 2.44097 12.6541C2.26791 12.6653 2.0975 12.6073 1.96721 12.4929C1.83692 12.3784 1.75743 12.2169 1.74623 12.0439C1.73503 11.8708 1.79304 11.7004 1.90749 11.5701L3.76267 9.45788L0.653847 9.45962C0.495714 9.45959 0.342952 9.40225 0.223855 9.29823C0.104759 9.1942 0.0273983 9.05054 0.00610308 8.89386L5.45465e-07 8.80494C-0.000203637 8.6468 0.0569215 8.49394 0.160793 8.37469C0.264664 8.25543 0.408241 8.17787 0.564924 8.15636L0.653847 8.15113H3.37733L1.90749 6.47475C1.79304 6.34447 1.73503 6.17406 1.74623 6.00101C1.75743 5.82796 1.83692 5.66645 1.96721 5.552C2.09749 5.43756 2.26791 5.37956 2.44097 5.39075C2.61403 5.40195 2.77555 5.48144 2.89 5.61172L5.11744 8.15026H7.84441V5.61346L5.08954 3.19174C4.97184 3.08829 4.89521 2.946 4.87361 2.7908C4.85201 2.6356 4.88687 2.4778 4.97185 2.34614L5.03026 2.26943C5.13372 2.15174 5.27601 2.07511 5.43122 2.05351C5.58643 2.03191 5.74423 2.06677 5.8759 2.15174L5.95349 2.21015L7.84528 3.87258L7.84615 0.958317C7.84612 0.815277 7.89301 0.676174 7.97961 0.562331C8.06622 0.448487 8.18777 0.366186 8.32564 0.328042L8.41108 0.310607L8.5 0.304504Z" fill="black"/>
</svg>
