<svg width="27" height="27" viewBox="0 0 27 27" fill="none" xmlns="http://www.w3.org/2000/svg">
<path d="M10.5839 23.095C10.7492 23.0977 10.9115 23.0501 11.0491 22.9585C11.1868 22.8669 11.2934 22.7356 11.3547 22.582L14.4876 14.751L22.3194 11.6181C22.4708 11.5576 22.6007 11.4531 22.6921 11.318C22.7836 11.1829 22.8325 11.0235 22.8324 10.8604L22.8324 10.8474C22.8298 10.6822 22.7771 10.5216 22.6813 10.3871C22.5854 10.2525 22.451 10.1502 22.2957 10.0937L4.35157 3.56856C4.20559 3.51515 4.04739 3.50456 3.89559 3.53805C3.7438 3.57153 3.60473 3.6477 3.49477 3.75757C3.38482 3.86744 3.30854 4.00645 3.27494 4.15822C3.24134 4.30999 3.2518 4.4682 3.3051 4.61422L9.83024 22.5584C9.88687 22.7137 9.98933 22.8482 10.124 22.944C10.2588 23.0398 10.4194 23.0925 10.5847 23.095L10.5839 23.095Z" fill="black"/>
</svg>
