<svg width="27" height="28" viewBox="0 0 27 28" fill="none" xmlns="http://www.w3.org/2000/svg">
<path d="M13.0448 3.10803C13.9474 3.10796 14.8159 3.45321 15.4721 4.073C16.1283 4.69279 16.5225 5.54014 16.5738 6.44129L16.5793 6.64248L16.5804 15.2905L16.6674 15.3655C17.6808 16.2691 18.3188 17.5197 18.4553 18.8706L18.4759 19.1446L18.4824 19.4209C18.4826 20.3168 18.2614 21.1989 17.8385 21.9887C17.4155 22.7785 16.804 23.4516 16.0583 23.9481C15.3125 24.4446 14.4556 24.7491 13.5638 24.8346C12.672 24.9201 11.7728 24.784 10.9463 24.4382C10.1198 24.0925 9.39154 23.5478 8.82625 22.8528C8.26096 22.1577 7.87617 21.3337 7.70609 20.4541C7.53601 19.5745 7.58591 18.6665 7.85136 17.8108C8.1168 16.9551 8.58957 16.1782 9.22762 15.5493L9.42337 15.3644L9.50929 15.2905L9.51037 6.64248C9.51019 5.77388 9.82986 4.93563 10.4084 4.28772C10.9869 3.6398 11.7837 3.2276 12.6468 3.12978L12.8447 3.11347L13.0448 3.10803ZM13.0448 4.73932C12.567 4.73936 12.1067 4.91912 11.7553 5.24289C11.404 5.56667 11.1872 6.01076 11.1482 6.48697L11.1417 6.64248V16.0974L10.8056 16.3421C10.1636 16.8091 9.68364 17.4652 9.43298 18.2185C9.18233 18.9718 9.1735 19.7847 9.40774 20.5433C9.64198 21.3019 10.1076 21.9682 10.7393 22.449C11.3711 22.9299 12.1374 23.2012 12.9309 23.2249C13.7245 23.2486 14.5056 23.0236 15.165 22.5813C15.8243 22.1391 16.3288 21.5017 16.608 20.7585C16.8871 20.0152 16.9268 19.2033 16.7216 18.4363C16.5164 17.6694 16.0765 16.9858 15.4635 16.4813L15.284 16.3432L14.9502 16.0985L14.948 6.64248C14.948 6.13773 14.7475 5.65365 14.3906 5.29674C14.0337 4.93983 13.5496 4.73932 13.0448 4.73932ZM13.0448 9.63317C13.2611 9.63317 13.4686 9.7191 13.6216 9.87207C13.7745 10.025 13.8605 10.2325 13.8605 10.4488V16.8271C14.4804 17.022 15.0101 17.4324 15.3536 17.9841C15.6972 18.5357 15.8318 19.1921 15.7332 19.8344C15.6347 20.4768 15.3094 21.0626 14.8162 21.4858C14.3231 21.9091 13.6947 22.1417 13.0448 22.1417C12.395 22.1417 11.7666 21.9091 11.2734 21.4858C10.7803 21.0626 10.455 20.4768 10.3564 19.8344C10.2578 19.1921 10.3925 18.5357 10.736 17.9841C11.0795 17.4324 11.6092 17.022 12.2292 16.8271V10.4488C12.2292 10.2325 12.3151 10.025 12.4681 9.87207C12.621 9.7191 12.8285 9.63317 13.0448 9.63317Z" fill="black"/>
</svg>
